<svg width="128" height="128" viewBox="0 0 128 128" fill="none" xmlns="http://www.w3.org/2000/svg">
<g clip-path="url(#clip0_2_2)">
<rect width="128" height="128" rx="50" fill="white"/>
<path d="M64.384 119.736C54.88 119.736 46.864 118.248 40.336 115.272C33.808 112.2 28.864 108.072 25.504 102.888C22.144 97.608 20.464 91.56 20.464 84.744H43.36C43.36 87.432 44.08 89.928 45.52 92.232C47.056 94.536 49.36 96.408 52.432 97.848C55.504 99.192 59.488 99.864 64.384 99.864C68.8 99.864 72.496 99.288 75.472 98.136C78.448 96.984 80.704 95.4 82.24 93.384C83.776 91.272 84.544 88.872 84.544 86.184C84.544 82.824 83.104 80.184 80.224 78.264C77.344 76.248 72.688 74.952 66.256 74.376L58.336 73.656C47.872 72.792 39.52 69.528 33.28 63.864C27.04 58.2 23.92 50.712 23.92 41.4C23.92 34.68 25.504 28.872 28.672 23.976C31.936 19.08 36.448 15.336 42.208 12.744C47.968 10.056 54.784 8.712 62.656 8.712C70.912 8.712 77.968 10.152 83.824 13.032C89.776 15.816 94.336 19.8 97.504 24.984C100.672 30.072 102.256 36.072 102.256 42.984H79.216C79.216 40.392 78.592 38.04 77.344 35.928C76.096 33.72 74.224 31.944 71.728 30.6C69.328 29.256 66.304 28.584 62.656 28.584C59.2 28.584 56.272 29.16 53.872 30.312C51.568 31.464 49.84 33.048 48.688 35.064C47.536 36.984 46.96 39.096 46.96 41.4C46.96 44.376 48.016 46.968 50.128 49.176C52.24 51.384 55.696 52.68 60.496 53.064L68.56 53.784C76.24 54.456 83.008 56.136 88.864 58.824C94.72 61.416 99.28 65.016 102.544 69.624C105.904 74.136 107.584 79.656 107.584 86.184C107.584 92.904 105.808 98.808 102.256 103.896C98.8 108.888 93.856 112.776 87.424 115.56C80.992 118.344 73.312 119.736 64.384 119.736Z" fill="url(#paint0_linear_2_2)"/>
</g>
<defs>
<linearGradient id="paint0_linear_2_2" x1="16" y1="55" x2="113" y2="55" gradientUnits="userSpaceOnUse">
<stop stop-color="#7F00FF"/>
<stop offset="1" stop-color="#E100FF"/>
</linearGradient>
<clipPath id="clip0_2_2">
<rect width="128" height="128" rx="50" fill="white"/>
</clipPath>
</defs>
</svg>
